<?xml version="1.0" encoding="UTF-8"?>
<svg id="Layer_1" data-name="Layer 1" xmlns="http://www.w3.org/2000/svg" version="1.1" viewBox="0 0 1920 1080">
  <defs>
    <style>
      .cls-1 {
        fill: #fcf5ff;
        stroke: #4a0045;
        stroke-miterlimit: 10;
        stroke-width: 2px;
      }

      .cls-2 {
        opacity: .3;
      }
    </style>
  </defs>
  <g class="cls-2">
    <path class="cls-1" d="M439.5,282.1c-1.3.4-1.5,1.3-1.8,2.1-4.1,9.9-11.4,17.3-18.9,24.6-10.5,10.2-22.1,19.3-33.2,28.8-6.4,5.5-12.4,11.4-17.9,17.9-7.4,8.8-15.8,16.5-25.5,22.7-13.6,8.7-26.5,18.4-40.5,26.4-17,9.7-33.8,19.9-51.3,28.7-3,1.5-5.7,3.5-8.3,5.7-2.7,2.3-4.7,5.2-5.6,8.6-2,7.5-6.2,13.6-12.4,18-6.3,4.5-12,9.6-18.1,14.3-.5.4-1.1.8-1.3,1.3-1.5,3.6-3.9,6.9-4.8,10.8-.9,4-2.4,7.8-3.6,11.7-.5,1.4-1.2,2.7-2.3,3.8-1.3,1.2-2.8,1.6-4.4.8-1.8-.9-2-2.5-1.6-4.1.4-1.6.9-3.1,1.4-4.6,1-3.2,1.9-6.4,2.2-9.9-2,1.5-2.1,1.4-2.4,3.6-.6,4-1.7,7.7-3.3,11.4-.6,1.5-.7,3.1-.8,4.7-.2,2.4-.9,4.7-2.5,6.4-1.2,1.3-2.8,2.1-4.7,1.4-2-.8-2.3-2.4-2.2-4.3,0-1.2.2-2.3-.1-3.6-.5,1.2-1,2.5-1.6,3.7-.6,1.2-1.3,2.4-2.5,3.2-2.6,1.8-5.8.6-6.1-2.5-.2-1.7-.5-2.8-2.3-3.1-2.2-.4-2.4-2.2-2.2-4.1.5-4.7,1.4-9.3,2.6-13.9.4-1.4,1-2.8,1.2-4.3.7-5.7,3.7-10.1,7.5-14.2,4-4.2,8-8.5,10.6-13.8,1.5-3.1,4.1-5.6,6.7-7.9,6.4-5.8,12.6-12,20-16.7,4-2.5,7.1-5.8,9.7-9.6,4.6-7,10.2-13,16.5-18.5,18.8-16.5,36.4-34.1,53.2-52.6,12-13.3,25.6-24.6,41-33.6,10.9-6.4,20.2-14.9,28.6-24.1,13.6-14.8,26.8-30,37.6-47.1,9.1-14.4,20.9-26.4,33.8-37.4,2.8-2.4,5.9-4.2,9.2-5.5,7-2.9,14.2-5.3,21.6-6.7,13.8-2.6,26.4-8.5,38.6-15.2,1.1-.6,2.1-1.3,3.1-2.1,3.7-2.9,5.8-6.6,5.8-11.5,0-8.9-.8-17.8-1.4-26.8-.4-6.1-2.7-11.5-4.1-17.6-2.5,1.8-4.3.5-6.1-.9-1.8-1.5-3.3-3.3-4.2-5.6-2.1-5.8-2.7-11.8-2.9-17.9-.1-3.5.9-4.5,4.6-5.4,1.5-.4,1.2-1.4,1-2.3-.7-3.9-.6-7.9-.4-11.9.8-16.5,6.9-30.6,19.8-41.3,6.5-5.4,13.8-8.7,22.2-9.6,8.7-.9,16.8,1.2,24,6.1,13,8.8,20.7,21.1,23.5,36.5,1.2,6.4,1.2,12.8.6,19.3-.1,1.4-.5,2.7,1.8,2.7,1.6,0,2.5,1.3,3,2.9.4,1.3.6,2.7.5,4-.6,5.3-1,10.6-2.3,15.8-.4,1.7-1,3.3-1.9,4.8-1.1,1.7-2.6,3.4-4.5,3.6-2.5.2-3,1.6-3.5,3.5-.3,1.1-.5,2.2-1,3.2-2.8,5.3-3.2,11.1-3.5,17-.3,6.9-.4,13.9-.3,20.8.1,4.7,2,8.4,5.9,11,1.3.9,2.6,1.9,4,2.7,12,6.4,24.2,12,37.6,14.9,7,1.6,13.8,4,20.4,6.8,4,1.7,7.7,4.1,10.9,7,12.9,11.6,24.6,24.2,34,38.8,8.9,14,19.7,26.4,31.3,38.3,7.4,7.6,14.5,15.3,22.9,21.9,5.3,4.2,10.9,7.8,16.6,11.4,12.3,7.7,23.3,16.8,33.2,27.4,17.8,19.1,36.7,37.1,55.7,54.9,4.5,4.2,8.1,9,11.8,13.9,3.6,4.7,7.5,8.9,12.7,11.9,3.1,1.8,5.9,4.1,8.5,6.6,4.6,4.6,9.8,8.4,13.8,13.6.4.5.9.9,1.2,1.5,3.1,6.5,8.6,11.2,13,16.7,2.2,2.8,3.8,5.7,4.7,9.2,1.7,6.4,3,12.8,3.6,19.3.2,2,.1,3.8-2.2,4.5-1.3.4-1.4,1.2-1.3,2.3,0,.6,0,1.2,0,1.9.1,1.8-.7,3.1-2.4,3.8-1.9.7-3.5.1-4.7-1.3-.9-1.1-1.6-2.4-2.4-3.8-.5,1.2-.1,2.2-.2,3.2-.1,1.4-.5,2.7-2,3.3-1.5.6-2.9.3-4.2-.7-1.9-1.5-2.8-3.7-2.9-5.9,0-3.7-1.5-7-2.6-10.4-.6-1.8-.9-3.6-1.4-5.4-.3-1.2-.2-2.5-1.8-3.4.4,3.6,1,6.9,2,10.2.4,1.4.9,2.8,1.3,4.3.4,1.6,0,3-1.6,3.8-1.5.7-2.9.5-4.2-.6-1.4-1.2-2.2-2.7-2.6-4.4-1-4.1-2.4-8.1-3.8-12-1.6-4.4-3.5-9-7.8-11.9-1-.7-2-1.5-2.8-2.4-3.2-3.5-6.9-6.4-10.7-9.3-6.9-5.4-12.3-11.9-14.9-20.4-1.8-6-6.2-9.8-11.2-12.9-3-1.9-6.4-3.3-9.5-5.1-23.7-14-48.1-27-70.5-43.1-2.3-1.7-4.7-3.3-7.1-4.8-11.9-7.2-22.2-16.3-31.5-26.5-5.6-6.1-11.7-11.8-18.3-16.9-13.9-10.8-27.7-21.8-40.1-34.4-5.1-5.1-10-10.4-13.3-16.9-.3-.5-.6-1.1-1-1.6-.1-.2-.4-.3-.8-.6-.7.7-.8,1.7-1.1,2.6-3.3,9.6-4.7,19.5-6,29.5-.7,5.2-1.6,10.3-3.1,15.3-2.1,6.9-3.6,13.9-4,21.1-.7,10.3-2.1,20.5-1,30.8.7,6.4,1.7,12.8,2.6,19.2,2.6,18.7,6.2,37.2,10.4,55.6,2.1,9.5,3,19.1,4.1,28.7,1.8,15.1,3.9,30.3,5.7,45.4,1.1,9.6,1.2,19.3.7,29-1,21.4-5.2,42.3-8.9,63.3-3.4,18.9-7,37.8-9.1,56.9-.7,6.8-1.1,13.6-.8,20.4.2,6.9.4,13.9.3,20.8-.3,14.6,1.3,29,3.6,43.4,2.7,17.7,3.1,35.3.6,53-4.2,29.4-9.5,58.5-16.2,87.4-1.4,5.9-2.4,11.9-3,18-.5,5.5.5,10.9,1.5,16.3.4,2.4.5,4.7.2,7-.9,6.3-.9,12.6,1.7,18.7.7,1.6,1.1,3.3,1.5,5,1.4,5.9,4.5,10.8,8.6,15.4,4.7,5.3,9.4,10.6,11.7,17.5,1.4,4.3-.4,10.3-4.1,12.9-3.7,2.6-7.5,4.3-12.4,3.9-5.3-.4-10.6.5-16,.8-1,0-2,.4-2.9-.3-1.4-1.1-2.6-2.3-4.6-2.1-.3,0-.8-.3-.9-.6-1.3-2.8-4.2-4.6-5.1-7.7-.7-2.4-2.1-4.5-3.5-6.5-2.5-3.8-4.4-7.7-3.2-12.5.6-2.6-.3-5.2-1.2-7.6-.4-1.2-1-2.3-1.5-3.4-2.7-5-3.6-10.2-3-15.8.4-3.8.3-7.7-.6-11.5-1-4.4-1-8.9-1-13.3,0-1.3.3-2.4.7-3.6,3.3-10.6,3.7-21.4,2.8-32.4-1.8-22.9-5.7-45.5-9.6-68.1-2.8-16.4-3.1-32.8-1.5-49.3,1-10.1,1.8-20.3-.3-30.4-1.2-5.8-2.4-11.7-4.6-17.2-5.1-13.3-6.4-27.2-7.4-41.2-1-14.1-2-28.2-3.6-42.3-1.4-12-4.1-23.7-6.4-35.5-2.8-14.2-5.4-28.5-6.7-43-.3-3.4,0-6.6,1-9.9.7-2.2.2-2.6-2-2.9-2.3-.3-2.7,0-2.4,2.3.4,3.3.8,6.6.5,10-1,13-3.5,25.8-5.9,38.6-2.3,12.3-5.3,24.5-6.7,37-1,9-1.5,18.1-2.7,27-1.8,14.1-2.4,28.4-5.1,42.5-1,4.9-2.5,9.6-4.3,14.2-3.6,9.7-6.2,19.6-7.3,29.9-1,8.6,0,17.1.7,25.6,1.1,12.5,1,25-.7,37.5-2.9,21.1-6.3,42.2-8.3,63.5-1,10.3-1.4,20.5.5,30.8.7,4,2.1,7.9,3.2,11.9,1.1,4.1,1.1,8.1.2,12.1-1.8,8.4-3.4,16.8-3.6,25.4,0,3-1.3,5.8-2.4,8.6-1.9,4.9-3.2,9.9-2.6,15.2.3,2.8-.5,5.4-2.2,7.7-1.7,2.3-3,4.8-3.8,7.6-.7,2.9-3,4.8-4.7,7.1-.3.4-.8.6-1.3.7-3.1.2-5.6,1.9-8.4,2.8-2.8.9-5.6.9-8.4.4-1.2-.2-2.4-.6-3.7-.5-6.8.3-12.5-2.4-17.9-6.2-3.6-2.5-4.5-5.9-3.9-9.7.7-4.4,2.1-8.5,5.4-12,3.3-3.5,6.2-7.4,9.7-10.8,3.8-3.8,6-8.5,7.7-13.5,1-2.9,2-5.9,3.1-8.8.5-1.4.8-2.8.8-4.4,0-2.1,0-4.2,0-6.3-.2-4.2-.2-8.4.7-12.6,1.9-9.5.6-18.8-1.9-28-4.9-18.6-9.5-37.3-13.2-56.1-2.6-13.1-5.2-26.3-6.8-39.6-1.7-14.1-1.3-28.2.7-42.3,1.8-12.5,3.8-25,5.4-37.6.6-4.9.6-9.9.6-14.9,0-10.5.7-21.1-.1-31.6-1.1-14.7-3.4-29.3-5.9-43.9-3.1-17.7-6.5-35.4-9.6-53.1-3.4-18.9-4.8-37.9-3.2-57.1.7-7.7,1.7-15.3,2.8-22.9,1.6-10.8,3.1-21.6,4.1-32.5,1.3-14,4.4-27.6,8-41.2,4.6-17.5,7.8-35.4,9.9-53.4,1-8.5.2-17.1-.7-25.6-.3-2.7-.7-5.4-.8-8.1-.2-9-3.4-17.5-5.2-26.2-1.4-6.9-2.9-13.8-4.3-20.8-1.3-6.6-3.7-12.9-5.9-19.2-.1-.3-.4-.6-.8-1Z"/>
  </g>
</svg>