<?xml version="1.0" encoding="UTF-8"?>
<svg id="Layer_2" data-name="Layer 2" xmlns="http://www.w3.org/2000/svg" viewBox="0 0 184.75 187.06">
  <defs>
    <style>
      .cls-1 {
        fill: none;
        stroke: #231f20;
        stroke-miterlimit: 10;
        stroke-width: .25px;
      }
    </style>
  </defs>
  <g id="Layer_1-2" data-name="Layer 1">
    <path class="cls-1" d="m2.94,111.46C-6.29,77.1,7.5,38.35,39.92,16.21c32.8-22.39,74.5-20.81,103.18,1.03-21-2.64-55.7,9.64-86.52,32.53C26.51,72.1,7.63,94.28,2.94,111.46Z"/>
    <path class="cls-1" d="m171.8,53.37c-.17-.3-.41-.63-.6-.91-8.93-13.07-37.91-8.81-75.25,14.45,26.14-13.4,42.43-12.73,49.06-2.94,8.46,12.49-12.51,41.73-46.82,65.33-29.12,20.03-59.07,31.1-71.66,24.21-1.08-.59-2.03-1.42-2.74-2.38h-.03c.25.37.53.67.79,1.03h0c10.57,13.3,53.75,4.89,95.58-26.19,39.92-29.65,61.05-57.68,51.66-72.59"/>
    <path class="cls-1" d="m13.42,134.09c.17.3.41.63.6.91,8.93,13.07,37.91,8.81,75.25-14.45-26.14,13.4-42.43,12.73-49.06,2.94-8.46-12.49,12.51-41.73,46.82-65.33,29.12-20.03,59.07-31.1,71.66-24.21,1.08.59,2.03,1.42,2.74,2.38h.03c-.25-.37-.53-.67-.79-1.03h0c-10.57-13.3-53.75-4.89-95.58,26.19C25.16,91.15,4.03,119.18,13.42,134.09"/>
    <path class="cls-1" d="m181.81,75.6c9.23,34.36-4.56,73.12-36.98,95.25-32.8,22.39-74.5,20.81-103.18-1.03,21,2.64,55.7-9.64,86.52-32.53,30.06-22.33,48.95-44.51,53.64-61.69Z"/>
  </g>
</svg>