<?xml version="1.0" encoding="UTF-8"?>
<svg id="Layer_2" data-name="Layer 2" xmlns="http://www.w3.org/2000/svg" viewBox="0 0 174.13 158.35">
  <defs>
    <style>
      .cls-1 {
        fill: none;
        stroke: #231f20;
        stroke-miterlimit: 10;
        stroke-width: .25px;
      }
    </style>
  </defs>
  <g id="Layer_1-2" data-name="Layer 1">
    <path class="cls-1" d="m62.08,57.77c33.02-24.53,70.5-36.87,90.8-31.74C124.63-3.87,76.69-8.88,39.92,16.21,3.44,41.12-9.46,87.07,7.5,124.13c2.21-17.72,21.72-41.95,54.58-66.35Z"/>
    <path class="cls-1" d="m171.8,53.37c-.17-.3-.41-.63-.6-.91-8.93-13.07-37.91-8.81-75.25,14.45,26.14-13.4,42.43-12.73,49.06-2.94,8.46,12.49-12.51,41.73-46.82,65.33-29.12,20.03-59.07,31.1-71.66,24.21-1.08-.59-2.03-1.42-2.74-2.38h-.03c.25.37.53.67.79,1.03h0c10.57,13.3,53.75,4.89,95.58-26.19,39.92-29.65,61.05-57.68,51.66-72.59"/>
  </g>
</svg>