<?xml version="1.0" encoding="UTF-8"?>
<svg id="Layer_2" data-name="Layer 2" xmlns="http://www.w3.org/2000/svg" viewBox="0 0 184.75 187.06">
  <defs>
    <style>
      .cls-1 {
        fill: none;
        stroke: #231f20;
        stroke-miterlimit: 10;
        stroke-width: .25px;
      }
    </style>
  </defs>
  <g id="Layer_1-2" data-name="Layer 1">
    <path class="cls-1" d="m62.08,57.77c33.02-24.53,70.5-36.87,90.8-31.74C124.63-3.87,76.69-8.88,39.92,16.21,3.44,41.12-9.46,87.07,7.5,124.13c2.21-17.72,21.72-41.95,54.58-66.35Z"/>
    <path class="cls-1" d="m171.8,53.37c-.17-.3-.41-.63-.6-.91-8.93-13.07-37.91-8.81-75.25,14.45,26.14-13.4,42.43-12.73,49.06-2.94,8.46,12.49-12.51,41.73-46.82,65.33-29.12,20.03-59.07,31.1-71.66,24.21-1.08-.59-2.03-1.42-2.74-2.38h-.03c.25.37.53.67.79,1.03h0c10.57,13.3,53.75,4.89,95.58-26.19,39.92-29.65,61.05-57.68,51.66-72.59"/>
    <path class="cls-1" d="m177.35,63.17c-2.2,17.71-21.71,41.95-54.57,66.35-33.54,24.91-70.34,37.24-90.41,32.03,28.32,29.44,75.9,34.24,112.46,9.3,36.4-24.86,49.32-70.67,32.52-107.68Z"/>
    <path class="cls-1" d="m13.42,134.09c.17.3.41.63.6.91,8.93,13.07,37.91,8.81,75.25-14.45-26.14,13.4-42.43,12.73-49.06,2.94-8.46-12.49,12.51-41.73,46.82-65.33,29.12-20.03,59.07-31.1,71.66-24.21,1.08.59,2.03,1.42,2.74,2.38h.03c-.25-.37-.53-.67-.79-1.03h0c-10.57-13.3-53.75-4.89-95.58,26.19C25.16,91.15,4.03,119.18,13.42,134.09"/>
  </g>
</svg>